<svg width="590" height="241" viewBox="0 0 590 241" fill="none" xmlns="http://www.w3.org/2000/svg">
<path d="M285.455 157.625V86.6782H300.455V145.258H330.871V157.625H285.455ZM338.576 157.625V104.415H353.334V157.625H338.576ZM345.99 97.5557C343.796 97.5557 341.913 96.8283 340.343 95.3733C338.796 93.8952 338.022 92.1285 338.022 90.0731C338.022 88.0408 338.796 86.2971 340.343 84.8422C341.913 83.3641 343.796 82.6251 345.99 82.6251C348.184 82.6251 350.054 83.3641 351.602 84.8422C353.172 86.2971 353.957 88.0408 353.957 90.0731C353.957 92.1285 353.172 93.8952 351.602 95.3733C350.054 96.8283 348.184 97.5557 345.99 97.5557ZM377.962 126.863V157.625H363.204V104.415H377.269V113.803H377.892C379.07 110.708 381.045 108.26 383.816 106.459C386.587 104.634 389.948 103.722 393.897 103.722C397.592 103.722 400.814 104.53 403.562 106.147C406.31 107.764 408.446 110.073 409.971 113.075C411.495 116.055 412.257 119.611 412.257 123.745V157.625H397.5V126.378C397.523 123.121 396.691 120.581 395.005 118.757C393.32 116.909 390.998 115.985 388.042 115.985C386.056 115.985 384.301 116.412 382.777 117.267C381.276 118.121 380.098 119.369 379.243 121.008C378.412 122.625 377.985 124.576 377.962 126.863ZM435.309 142.313L435.343 124.611H437.491L454.535 104.415H471.475L448.577 131.158H445.078L435.309 142.313ZM421.937 157.625V86.6782H436.694V157.625H421.937ZM455.193 157.625L439.535 134.449L449.373 124.022L472.48 157.625H455.193ZM476.764 157.625V104.415H491.521V157.625H476.764ZM484.177 97.5557C481.983 97.5557 480.101 96.8283 478.531 95.3733C476.983 93.8952 476.21 92.1285 476.21 90.0731C476.21 88.0408 476.983 86.2971 478.531 84.8422C480.101 83.3641 481.983 82.6251 484.177 82.6251C486.371 82.6251 488.242 83.3641 489.789 84.8422C491.36 86.2971 492.145 88.0408 492.145 90.0731C492.145 92.1285 491.36 93.8952 489.789 95.3733C488.242 96.8283 486.371 97.5557 484.177 97.5557ZM530.006 104.415V115.5H497.166V104.415H530.006ZM504.683 157.625V100.57C504.683 96.7128 505.434 93.5142 506.935 90.9738C508.459 88.4334 510.537 86.5281 513.17 85.2579C515.803 83.9877 518.794 83.3526 522.142 83.3526C524.406 83.3526 526.473 83.5258 528.343 83.8722C530.237 84.2186 531.646 84.5304 532.57 84.8075L529.937 95.8929C529.36 95.7082 528.644 95.535 527.789 95.3733C526.958 95.2116 526.103 95.1308 525.226 95.1308C523.055 95.1308 521.542 95.6389 520.688 96.6551C519.833 97.6481 519.406 99.0453 519.406 100.847V157.625H504.683ZM546.182 177.578C544.311 177.578 542.556 177.428 540.916 177.128C539.299 176.851 537.96 176.493 536.898 176.054L540.223 165.038C541.955 165.569 543.514 165.858 544.9 165.904C546.309 165.95 547.521 165.627 548.537 164.934C549.576 164.241 550.419 163.064 551.066 161.401L551.932 159.149L532.844 104.415H548.364L559.38 143.491H559.934L571.054 104.415H586.678L565.997 163.375C565.004 166.239 563.653 168.733 561.944 170.858C560.258 173.006 558.121 174.657 555.535 175.812C552.948 176.99 549.83 177.578 546.182 177.578Z" fill="black"/>
<g clip-path="url(#clip0_48_426)">
<rect width="240.361" height="240.361" rx="52.0783" fill="white"/>
<rect width="240.361" height="240.361" fill="#34C759"/>
<path d="M96.0689 115.564C103.877 107.756 117.495 107.756 125.303 115.564L130.175 120.436L139.92 110.692L135.048 105.819C128.549 99.3137 119.893 95.7231 110.686 95.7231C101.479 95.7231 92.823 99.3137 86.3242 105.819L71.7003 120.436C65.2518 126.906 61.6309 135.667 61.6309 144.801C61.6309 153.936 65.2518 162.697 71.7003 169.167C74.8971 172.368 78.695 174.906 82.8758 176.635C87.0566 178.364 91.5378 179.25 96.062 179.242C100.587 179.251 105.07 178.366 109.252 176.637C113.434 174.908 117.233 172.369 120.431 169.167L125.303 164.294L115.558 154.55L110.686 159.422C106.802 163.288 101.545 165.459 96.0655 165.459C90.5855 165.459 85.3286 163.288 81.445 159.422C77.5754 155.54 75.4025 150.283 75.4025 144.801C75.4025 139.32 77.5754 134.063 81.445 130.181L96.0689 115.564Z" fill="white"/>
<path d="M120.431 71.7062L115.558 76.5785L125.303 86.3232L130.175 81.4509C134.059 77.5846 139.316 75.4141 144.796 75.4141C150.276 75.4141 155.533 77.5846 159.416 81.4509C163.286 85.3327 165.459 90.5902 165.459 96.0713C165.459 101.552 163.286 106.81 159.416 110.692L144.792 125.309C136.984 133.117 123.367 133.117 115.558 125.309L110.686 120.436L100.941 130.181L105.814 135.053C112.312 141.559 120.968 145.15 130.175 145.15C139.383 145.15 148.038 141.559 154.537 135.053L169.161 120.436C175.609 113.967 179.23 105.206 179.23 96.0713C179.23 86.9371 175.609 78.1754 169.161 71.7062C162.694 65.2543 153.931 61.631 144.796 61.631C135.661 61.631 126.898 65.2543 120.431 71.7062Z" fill="white"/>
</g>
<defs>
<clipPath id="clip0_48_426">
<rect width="240.361" height="240.361" rx="52.0783" fill="white"/>
</clipPath>
</defs>
</svg>
